<svg width="568" height="227" viewBox="0 0 568 227" fill="none" xmlns="http://www.w3.org/2000/svg">
<rect y="143.215" width="568" height="83.7854" fill="#766357"/>
<path d="M149.315 180.304H144.17V192.442H141.293V177.742H152.192V192.442H149.315V180.304ZM154.243 185.092C154.243 182.642 154.782 180.759 155.86 179.443C156.938 178.113 158.478 177.448 160.48 177.448C161.53 177.448 162.447 177.63 163.231 177.994C164.015 178.358 164.666 178.876 165.184 179.548C165.702 180.22 166.087 181.025 166.339 181.963C166.591 182.901 166.717 183.944 166.717 185.092C166.717 187.542 166.171 189.432 165.079 190.762C164.001 192.078 162.468 192.736 160.48 192.736C159.416 192.736 158.492 192.554 157.708 192.19C156.924 191.826 156.273 191.308 155.755 190.636C155.251 189.964 154.873 189.159 154.621 188.221C154.369 187.283 154.243 186.24 154.243 185.092ZM157.267 185.092C157.267 185.834 157.33 186.52 157.456 187.15C157.582 187.766 157.771 188.298 158.023 188.746C158.289 189.194 158.625 189.544 159.031 189.796C159.437 190.048 159.92 190.174 160.48 190.174C161.502 190.174 162.293 189.775 162.853 188.977C163.413 188.179 163.693 186.884 163.693 185.092C163.693 184.378 163.63 183.713 163.504 183.097C163.392 182.481 163.21 181.942 162.958 181.48C162.706 181.018 162.377 180.661 161.971 180.409C161.565 180.143 161.068 180.01 160.48 180.01C159.458 180.01 158.667 180.423 158.107 181.249C157.547 182.061 157.267 183.342 157.267 185.092ZM177.341 184.294L177.509 182.383H177.404L176.417 184.357L170.936 192.442H168.773V177.742H171.65V185.743L171.44 187.717H171.566L172.595 185.68L178.076 177.742H180.218V192.442H177.341V184.294ZM192.714 191.833C192.266 192.155 191.692 192.386 190.992 192.526C190.306 192.666 189.599 192.736 188.871 192.736C187.989 192.736 187.149 192.603 186.351 192.337C185.567 192.057 184.874 191.616 184.272 191.014C183.67 190.398 183.187 189.607 182.823 188.641C182.473 187.661 182.298 186.478 182.298 185.092C182.298 183.65 182.494 182.446 182.886 181.48C183.292 180.5 183.81 179.716 184.44 179.128C185.084 178.526 185.798 178.099 186.582 177.847C187.366 177.581 188.15 177.448 188.934 177.448C189.774 177.448 190.481 177.504 191.055 177.616C191.643 177.728 192.126 177.861 192.504 178.015L191.937 180.451C191.615 180.297 191.23 180.185 190.782 180.115C190.348 180.045 189.816 180.01 189.186 180.01C188.024 180.01 187.086 180.423 186.372 181.249C185.672 182.075 185.322 183.356 185.322 185.092C185.322 185.848 185.406 186.541 185.574 187.171C185.742 187.787 185.994 188.319 186.33 188.767C186.68 189.201 187.107 189.544 187.611 189.796C188.129 190.034 188.724 190.153 189.396 190.153C190.026 190.153 190.558 190.09 190.992 189.964C191.426 189.838 191.804 189.677 192.126 189.481L192.714 191.833ZM198.123 186.163H197.367V192.442H194.49V177.742H197.367V184.252L198.039 183.958L202.092 177.742H205.368L201.084 183.916L199.95 184.714L201.126 185.533L206.019 192.442H202.47L198.123 186.163ZM221.022 180.304H215.352V192.442H212.475V177.742H221.022V180.304ZM221.18 185.092C221.18 182.642 221.719 180.759 222.797 179.443C223.875 178.113 225.415 177.448 227.417 177.448C228.467 177.448 229.384 177.63 230.168 177.994C230.952 178.358 231.603 178.876 232.121 179.548C232.639 180.22 233.024 181.025 233.276 181.963C233.528 182.901 233.654 183.944 233.654 185.092C233.654 187.542 233.108 189.432 232.016 190.762C230.938 192.078 229.405 192.736 227.417 192.736C226.353 192.736 225.429 192.554 224.645 192.19C223.861 191.826 223.21 191.308 222.692 190.636C222.188 189.964 221.81 189.159 221.558 188.221C221.306 187.283 221.18 186.24 221.18 185.092ZM224.204 185.092C224.204 185.834 224.267 186.52 224.393 187.15C224.519 187.766 224.708 188.298 224.96 188.746C225.226 189.194 225.562 189.544 225.968 189.796C226.374 190.048 226.857 190.174 227.417 190.174C228.439 190.174 229.23 189.775 229.79 188.977C230.35 188.179 230.63 186.884 230.63 185.092C230.63 184.378 230.567 183.713 230.441 183.097C230.329 182.481 230.147 181.942 229.895 181.48C229.643 181.018 229.314 180.661 228.908 180.409C228.502 180.143 228.005 180.01 227.417 180.01C226.395 180.01 225.604 180.423 225.044 181.249C224.484 182.061 224.204 183.342 224.204 185.092ZM245.665 191.833C245.217 192.155 244.643 192.386 243.943 192.526C243.257 192.666 242.55 192.736 241.822 192.736C240.94 192.736 240.1 192.603 239.302 192.337C238.518 192.057 237.825 191.616 237.223 191.014C236.621 190.398 236.138 189.607 235.774 188.641C235.424 187.661 235.249 186.478 235.249 185.092C235.249 183.65 235.445 182.446 235.837 181.48C236.243 180.5 236.761 179.716 237.391 179.128C238.035 178.526 238.749 178.099 239.533 177.847C240.317 177.581 241.101 177.448 241.885 177.448C242.725 177.448 243.432 177.504 244.006 177.616C244.594 177.728 245.077 177.861 245.455 178.015L244.888 180.451C244.566 180.297 244.181 180.185 243.733 180.115C243.299 180.045 242.767 180.01 242.137 180.01C240.975 180.01 240.037 180.423 239.323 181.249C238.623 182.075 238.273 183.356 238.273 185.092C238.273 185.848 238.357 186.541 238.525 187.171C238.693 187.787 238.945 188.319 239.281 188.767C239.631 189.201 240.058 189.544 240.562 189.796C241.08 190.034 241.675 190.153 242.347 190.153C242.977 190.153 243.509 190.09 243.943 189.964C244.377 189.838 244.755 189.677 245.077 189.481L245.665 191.833ZM257.755 180.304H253.471V192.442H250.594V180.304H246.289V177.742H257.755V180.304ZM267.822 184.294L267.99 182.383H267.885L266.898 184.357L261.417 192.442H259.254V177.742H262.131V185.743L261.921 187.717H262.047L263.076 185.68L268.557 177.742H270.699V192.442H267.822V184.294ZM281.493 186.289H276.117V192.442H273.24V177.742H276.117V183.727H281.493V177.742H284.37V192.442H281.493V186.289ZM295.487 184.294L295.655 182.383H295.55L294.563 184.357L289.082 192.442H286.919V177.742H289.796V185.743L289.586 187.717H289.712L290.741 185.68L296.222 177.742H298.364V192.442H295.487V184.294ZM313.61 195.067H311.573L311.258 192.442H300.905V177.742H303.782V189.88H308.843V177.742H311.72V189.88H313.61V195.067ZM326.559 177.742H329.436V192.442H326.559V177.742ZM315.219 177.742H318.096V183.013C318.25 182.985 318.495 182.95 318.831 182.908C319.167 182.866 319.496 182.845 319.818 182.845C320.518 182.845 321.183 182.915 321.813 183.055C322.457 183.195 323.017 183.447 323.493 183.811C323.969 184.161 324.347 184.644 324.627 185.26C324.907 185.862 325.047 186.625 325.047 187.549C325.047 189.257 324.55 190.538 323.556 191.392C322.562 192.232 321.085 192.652 319.125 192.652C318.929 192.652 318.677 192.645 318.369 192.631C318.061 192.631 317.725 192.617 317.361 192.589C317.011 192.561 316.647 192.526 316.269 192.484C315.891 192.442 315.541 192.379 315.219 192.295V177.742ZM319.335 190.09C320.133 190.09 320.777 189.908 321.267 189.544C321.771 189.166 322.023 188.543 322.023 187.675C322.023 187.213 321.953 186.835 321.813 186.541C321.673 186.247 321.484 186.016 321.246 185.848C321.008 185.68 320.728 185.568 320.406 185.512C320.084 185.442 319.734 185.407 319.356 185.407C319.16 185.407 318.929 185.428 318.663 185.47C318.397 185.498 318.208 185.533 318.096 185.575V189.964C318.25 190.006 318.432 190.041 318.642 190.069C318.866 190.083 319.097 190.09 319.335 190.09ZM347.177 181.165C347.177 181.529 347.128 181.893 347.03 182.257C346.946 182.621 346.799 182.957 346.589 183.265C346.379 183.559 346.106 183.825 345.77 184.063C345.434 184.287 345.028 184.455 344.552 184.567V184.693C344.972 184.763 345.371 184.882 345.749 185.05C346.127 185.218 346.456 185.449 346.736 185.743C347.016 186.037 347.233 186.394 347.387 186.814C347.555 187.234 347.639 187.731 347.639 188.305C347.639 189.061 347.478 189.719 347.156 190.279C346.834 190.825 346.4 191.273 345.854 191.623C345.322 191.973 344.713 192.232 344.027 192.4C343.341 192.568 342.634 192.652 341.906 192.652C341.668 192.652 341.36 192.652 340.982 192.652C340.618 192.652 340.219 192.638 339.785 192.61C339.365 192.596 338.931 192.568 338.483 192.526C338.049 192.484 337.65 192.421 337.286 192.337V177.847C337.552 177.805 337.853 177.763 338.189 177.721C338.539 177.679 338.91 177.644 339.302 177.616C339.694 177.588 340.093 177.567 340.499 177.553C340.919 177.539 341.332 177.532 341.738 177.532C342.424 177.532 343.089 177.588 343.733 177.7C344.391 177.798 344.972 177.98 345.476 178.246C345.994 178.512 346.407 178.883 346.715 179.359C347.023 179.835 347.177 180.437 347.177 181.165ZM341.927 190.279C342.277 190.279 342.613 190.237 342.935 190.153C343.271 190.069 343.565 189.943 343.817 189.775C344.069 189.593 344.272 189.369 344.426 189.103C344.58 188.837 344.657 188.522 344.657 188.158C344.657 187.696 344.566 187.332 344.384 187.066C344.202 186.8 343.964 186.597 343.67 186.457C343.376 186.303 343.047 186.205 342.683 186.163C342.319 186.121 341.955 186.1 341.591 186.1H340.058V190.153C340.128 190.181 340.24 190.202 340.394 190.216C340.548 190.23 340.709 190.244 340.877 190.258C341.059 190.258 341.241 190.265 341.423 190.279C341.619 190.279 341.787 190.279 341.927 190.279ZM340.982 183.916C341.178 183.916 341.402 183.909 341.654 183.895C341.92 183.881 342.137 183.86 342.305 183.832C342.837 183.664 343.292 183.412 343.67 183.076C344.062 182.74 344.258 182.299 344.258 181.753C344.258 181.389 344.188 181.088 344.048 180.85C343.908 180.612 343.719 180.423 343.481 180.283C343.257 180.143 342.998 180.045 342.704 179.989C342.41 179.933 342.102 179.905 341.78 179.905C341.416 179.905 341.08 179.912 340.772 179.926C340.464 179.94 340.226 179.961 340.058 179.989V183.916H340.982ZM364.692 191.833C364.244 192.155 363.67 192.386 362.97 192.526C362.284 192.666 361.577 192.736 360.849 192.736C359.967 192.736 359.127 192.603 358.329 192.337C357.545 192.057 356.852 191.616 356.25 191.014C355.648 190.398 355.165 189.607 354.801 188.641C354.451 187.661 354.276 186.478 354.276 185.092C354.276 183.65 354.472 182.446 354.864 181.48C355.27 180.5 355.788 179.716 356.418 179.128C357.062 178.526 357.776 178.099 358.56 177.847C359.344 177.581 360.128 177.448 360.912 177.448C361.752 177.448 362.459 177.504 363.033 177.616C363.621 177.728 364.104 177.861 364.482 178.015L363.915 180.451C363.593 180.297 363.208 180.185 362.76 180.115C362.326 180.045 361.794 180.01 361.164 180.01C360.002 180.01 359.064 180.423 358.35 181.249C357.65 182.075 357.3 183.356 357.3 185.092C357.3 185.848 357.384 186.541 357.552 187.171C357.72 187.787 357.972 188.319 358.308 188.767C358.658 189.201 359.085 189.544 359.589 189.796C360.107 190.034 360.702 190.153 361.374 190.153C362.004 190.153 362.536 190.09 362.97 189.964C363.404 189.838 363.782 189.677 364.104 189.481L364.692 191.833ZM366.468 177.742H375.183V180.304H369.345V183.727H374.658V186.289H369.345V189.88H375.288V192.442H366.468V177.742ZM390.334 195.067H388.297L387.982 192.442H378.532L378.217 195.067H376.18V189.88H377.734C377.832 189.726 377.993 189.383 378.217 188.851C378.441 188.319 378.665 187.57 378.889 186.604C379.113 185.624 379.302 184.406 379.456 182.95C379.61 181.48 379.68 179.744 379.666 177.742H388.465V189.88H390.334V195.067ZM385.588 189.88V180.304H382.333C382.249 182.796 382.046 184.84 381.724 186.436C381.416 188.018 381.101 189.166 380.779 189.88H385.588ZM391.047 185.092C391.047 182.642 391.586 180.759 392.664 179.443C393.742 178.113 395.282 177.448 397.284 177.448C398.334 177.448 399.251 177.63 400.035 177.994C400.819 178.358 401.47 178.876 401.988 179.548C402.506 180.22 402.891 181.025 403.143 181.963C403.395 182.901 403.521 183.944 403.521 185.092C403.521 187.542 402.975 189.432 401.883 190.762C400.805 192.078 399.272 192.736 397.284 192.736C396.22 192.736 395.296 192.554 394.512 192.19C393.728 191.826 393.077 191.308 392.559 190.636C392.055 189.964 391.677 189.159 391.425 188.221C391.173 187.283 391.047 186.24 391.047 185.092ZM394.071 185.092C394.071 185.834 394.134 186.52 394.26 187.15C394.386 187.766 394.575 188.298 394.827 188.746C395.093 189.194 395.429 189.544 395.835 189.796C396.241 190.048 396.724 190.174 397.284 190.174C398.306 190.174 399.097 189.775 399.657 188.977C400.217 188.179 400.497 186.884 400.497 185.092C400.497 184.378 400.434 183.713 400.308 183.097C400.196 182.481 400.014 181.942 399.762 181.48C399.51 181.018 399.181 180.661 398.775 180.409C398.369 180.143 397.872 180.01 397.284 180.01C396.262 180.01 395.471 180.423 394.911 181.249C394.351 182.061 394.071 183.342 394.071 185.092ZM413.83 186.289H408.454V192.442H405.577V177.742H408.454V183.727H413.83V177.742H416.707V192.442H413.83V186.289ZM419.256 177.742H427.971V180.304H422.133V183.727H427.446V186.289H422.133V189.88H428.076V192.442H419.256V177.742Z" fill="white"/>
<path d="M141.742 63.6449L142.106 64.8909H142.176L142.456 63.6029L144.332 58.4789H145.522L143.044 64.8489C142.792 65.5116 142.568 66.0669 142.372 66.5149C142.185 66.9536 141.994 67.3129 141.798 67.5929C141.602 67.8636 141.392 68.0596 141.168 68.1809C140.944 68.2929 140.669 68.3489 140.342 68.3489C140.034 68.3489 139.787 68.3256 139.6 68.2789C139.423 68.2229 139.255 68.1436 139.096 68.0409L139.446 67.0749C139.633 67.1776 139.805 67.2429 139.964 67.2709C140.123 67.2989 140.267 67.3129 140.398 67.3129C140.659 67.3129 140.879 67.1823 141.056 66.9209C141.233 66.6503 141.387 66.2536 141.518 65.7309L137.892 58.4789H139.236L141.742 63.6449ZM148.542 63.7429H147.884V68.2789H146.722V58.4789H147.884V63.0429L148.514 62.8469L151.804 58.4789H153.148L149.872 62.6929L149.284 63.1549L149.998 63.7149L153.582 68.2789H152.112L148.542 63.7429ZM159.929 65.5629H156.317L155.337 68.2789H154.189L157.899 58.3249H158.431L162.155 68.2789H160.937L159.929 65.5629ZM156.695 64.5549H159.579L158.487 61.5729L158.137 60.0889H158.123L157.773 61.6009L156.695 64.5549ZM167.279 58.4789H168.399V63.0429L169.001 62.8469L171.843 58.4789H173.131L170.303 62.7349L169.743 63.1829L170.443 63.7569L173.565 68.2789H172.137L169.043 63.7429H168.399V68.2789H167.279V63.5749L166.691 63.7709L163.597 68.2789H162.253L165.347 63.8969L166.019 63.3649L165.375 62.8749L162.449 58.4789H163.807L166.649 62.8749H167.279V58.4789ZM180.728 61.6429L180.812 60.5229H180.756L180.154 61.6709L175.422 68.2789H174.736V58.4789H175.898V65.1989L175.8 66.3049H175.856L176.472 65.1569L181.204 58.4789H181.89V68.2789H180.728V61.6429ZM190.593 59.5149H187.541V68.2789H186.379V59.5149H183.327V58.4789H190.593V59.5149ZM192.031 58.4789H197.365V59.5149H193.193V62.7209H197.015V63.7569H193.193V67.2429H197.435V68.2789H192.031V58.4789ZM208.953 59.5149H204.431V68.2789H203.269V58.4789H210.115V68.2789H208.953V59.5149ZM212.498 58.5769C212.852 58.4929 213.235 58.4369 213.646 58.4089C214.056 58.3809 214.462 58.3669 214.864 58.3669C215.293 58.3669 215.727 58.4089 216.166 58.4929C216.614 58.5769 217.02 58.7309 217.384 58.9549C217.748 59.1789 218.042 59.4869 218.266 59.8789C218.499 60.2709 218.616 60.7703 218.616 61.3769C218.616 61.9743 218.508 62.4783 218.294 62.8889C218.079 63.2996 217.794 63.6356 217.44 63.8969C217.085 64.1489 216.679 64.3309 216.222 64.4429C215.764 64.5549 215.293 64.6109 214.808 64.6109C214.761 64.6109 214.682 64.6109 214.57 64.6109C214.467 64.6109 214.355 64.6109 214.234 64.6109C214.122 64.6016 214.01 64.5923 213.898 64.5829C213.786 64.5736 213.706 64.5643 213.66 64.5549V68.2789H212.498V58.5769ZM214.892 59.3749C214.649 59.3749 214.416 59.3796 214.192 59.3889C213.968 59.3983 213.79 59.4216 213.66 59.4589V63.5189C213.706 63.5376 213.781 63.5516 213.884 63.5609C213.986 63.5609 214.094 63.5656 214.206 63.5749C214.318 63.5749 214.425 63.5749 214.528 63.5749C214.63 63.5749 214.705 63.5749 214.752 63.5749C215.069 63.5749 215.382 63.5469 215.69 63.4909C216.007 63.4256 216.292 63.3136 216.544 63.1549C216.796 62.9963 216.996 62.7723 217.146 62.4829C217.304 62.1936 217.384 61.8249 217.384 61.3769C217.384 60.9943 217.309 60.6769 217.16 60.4249C217.02 60.1636 216.828 59.9583 216.586 59.8089C216.352 59.6503 216.086 59.5383 215.788 59.4729C215.489 59.4076 215.19 59.3749 214.892 59.3749ZM220.318 58.4789H225.652V59.5149H221.48V62.7209H225.302V63.7569H221.48V67.2429H225.722V68.2789H220.318V58.4789ZM235.608 70.0849H234.81L234.6 68.2789H227.726L227.516 70.0849H226.704V67.2429H227.698C227.772 67.1403 227.884 66.9023 228.034 66.5289C228.192 66.1463 228.346 65.6049 228.496 64.9049C228.654 64.1956 228.794 63.3136 228.916 62.2589C229.037 61.1949 229.098 59.9349 229.098 58.4789H234.334V67.2429H235.608V70.0849ZM233.172 67.2429V59.5149H230.19C230.162 60.5416 230.106 61.4656 230.022 62.2869C229.947 63.1083 229.854 63.8363 229.742 64.4709C229.63 65.0963 229.504 65.6376 229.364 66.0949C229.224 66.5523 229.079 66.9349 228.93 67.2429H233.172ZM242.873 59.5149H238.351V68.2789H237.189V58.4789H244.035V68.2789H242.873V59.5149ZM246.012 63.3789C246.012 61.7456 246.357 60.4949 247.048 59.6269C247.738 58.7496 248.723 58.3109 250.002 58.3109C250.692 58.3109 251.29 58.4323 251.794 58.6749C252.298 58.9176 252.713 59.2629 253.04 59.7109C253.376 60.1496 253.623 60.6816 253.782 61.3069C253.94 61.9229 254.02 62.6136 254.02 63.3789C254.02 65.0123 253.67 66.2676 252.97 67.1449C252.279 68.0129 251.29 68.4469 250.002 68.4469C249.32 68.4469 248.728 68.3256 248.224 68.0829C247.729 67.8403 247.314 67.4996 246.978 67.0609C246.651 66.6129 246.408 66.0809 246.25 65.4649C246.091 64.8396 246.012 64.1443 246.012 63.3789ZM247.244 63.3789C247.244 63.9203 247.295 64.4336 247.398 64.9189C247.51 65.4043 247.678 65.8336 247.902 66.2069C248.126 66.5709 248.41 66.8649 248.756 67.0889C249.11 67.3036 249.526 67.4109 250.002 67.4109C250.87 67.4109 251.551 67.0843 252.046 66.4309C252.54 65.7683 252.788 64.7509 252.788 63.3789C252.788 62.8469 252.732 62.3383 252.62 61.8529C252.517 61.3583 252.349 60.9289 252.116 60.5649C251.892 60.1916 251.602 59.8976 251.248 59.6829C250.902 59.4589 250.487 59.3469 250.002 59.3469C249.143 59.3469 248.466 59.6783 247.972 60.3409C247.486 60.9943 247.244 62.0069 247.244 63.3789ZM261.072 59.5149H258.146C258.053 61.3816 257.927 62.9356 257.768 64.1769C257.619 65.4089 257.39 66.3703 257.082 67.0609C256.877 67.5089 256.634 67.8356 256.354 68.0409C256.074 68.2463 255.771 68.3489 255.444 68.3489C255.276 68.3489 255.132 68.3349 255.01 68.3069C254.889 68.2883 254.772 68.2556 254.66 68.2089L254.814 67.2009C254.908 67.2289 255.006 67.2429 255.108 67.2429C255.267 67.2429 255.421 67.1916 255.57 67.0889C255.729 66.9863 255.883 66.7949 256.032 66.5149C256.163 66.2629 256.284 65.9269 256.396 65.5069C256.518 65.0869 256.62 64.5549 256.704 63.9109C256.798 63.2669 256.872 62.5016 256.928 61.6149C256.984 60.7189 257.026 59.6736 257.054 58.4789H262.234V68.2789H261.072V59.5149ZM269.277 65.5629H265.665L264.685 68.2789H263.537L267.247 58.3249H267.779L271.503 68.2789H270.285L269.277 65.5629ZM266.043 64.5549H268.927L267.835 61.5729L267.485 60.0889H267.471L267.121 61.6009L266.043 64.5549ZM278.054 59.5149H273.966V68.2789H272.804V58.4789H278.054V59.5149ZM282.703 65.5629H279.091L278.111 68.2789H276.963L280.673 58.3249H281.205L284.929 68.2789H283.711L282.703 65.5629ZM279.469 64.5549H282.353L281.261 61.5729L280.911 60.0889H280.897L280.547 61.6009L279.469 64.5549ZM286.23 58.4789H291.564V59.5149H287.392V62.7209H291.214V63.7569H287.392V67.2429H291.634V68.2789H286.23V58.4789ZM301.268 61.6989L301.408 60.2289H301.338L300.806 61.5729L298.258 65.9969H297.908L295.206 61.5589L294.702 60.2289H294.632L294.828 61.6849V68.2789H293.736V58.4789H294.604L297.67 63.4909L298.132 64.5829H298.16L298.594 63.4629L301.52 58.4789H302.43V68.2789H301.268V61.6989ZM312.034 58.4789H313.196V68.2789H312.034V58.4789ZM304.81 58.4789H305.972V62.2869C306.019 62.2776 306.089 62.2683 306.182 62.2589C306.275 62.2403 306.378 62.2263 306.49 62.2169C306.602 62.2076 306.714 62.1983 306.826 62.1889C306.947 62.1796 307.064 62.1749 307.176 62.1749C307.615 62.1749 308.039 62.2216 308.45 62.3149C308.87 62.3989 309.239 62.5529 309.556 62.7769C309.873 63.0009 310.125 63.3043 310.312 63.6869C310.508 64.0603 310.606 64.5363 310.606 65.1149C310.606 65.6749 310.517 66.1649 310.34 66.5849C310.163 66.9956 309.911 67.3363 309.584 67.6069C309.267 67.8683 308.884 68.0643 308.436 68.1949C307.988 68.3256 307.493 68.3909 306.952 68.3909C306.821 68.3909 306.667 68.3863 306.49 68.3769C306.322 68.3769 306.14 68.3676 305.944 68.3489C305.757 68.3396 305.566 68.3209 305.37 68.2929C305.174 68.2649 304.987 68.2276 304.81 68.1809V58.4789ZM307.05 67.3829C307.722 67.3829 308.277 67.2009 308.716 66.8369C309.155 66.4729 309.374 65.9269 309.374 65.1989C309.374 64.8069 309.309 64.4803 309.178 64.2189C309.047 63.9576 308.87 63.7523 308.646 63.6029C308.431 63.4443 308.179 63.3369 307.89 63.2809C307.61 63.2156 307.311 63.1829 306.994 63.1829C306.826 63.1829 306.639 63.1969 306.434 63.2249C306.229 63.2529 306.075 63.2809 305.972 63.3089V67.2989C306.224 67.3549 306.583 67.3829 307.05 67.3829ZM315.57 58.4789H320.904V59.5149H316.732V62.7209H320.554V63.7569H316.732V67.2429H320.974V68.2789H315.57V58.4789ZM334.209 70.0849H333.411L333.201 68.2789H326.327L326.117 70.0849H325.305V67.2429H326.299C326.374 67.1403 326.486 66.9023 326.635 66.5289C326.794 66.1463 326.948 65.6049 327.097 64.9049C327.256 64.1956 327.396 63.3136 327.517 62.2589C327.639 61.1949 327.699 59.9349 327.699 58.4789H332.935V67.2429H334.209V70.0849ZM331.773 67.2429V59.5149H328.791C328.763 60.5416 328.707 61.4656 328.623 62.2869C328.549 63.1083 328.455 63.8363 328.343 64.4709C328.231 65.0963 328.105 65.6376 327.965 66.0949C327.825 66.5523 327.681 66.9349 327.531 67.2429H331.773ZM340.453 65.5629H336.841L335.861 68.2789H334.713L338.423 58.3249H338.955L342.679 68.2789H341.461L340.453 65.5629ZM337.219 64.5549H340.103L339.011 61.5729L338.661 60.0889H338.647L338.297 61.6009L337.219 64.5549ZM349.365 59.5149H346.313V68.2789H345.151V59.5149H342.099V58.4789H349.365V59.5149ZM358.026 58.4789H359.188V68.2789H358.026V58.4789ZM350.802 58.4789H351.964V62.2869C352.011 62.2776 352.081 62.2683 352.174 62.2589C352.268 62.2403 352.37 62.2263 352.482 62.2169C352.594 62.2076 352.706 62.1983 352.818 62.1889C352.94 62.1796 353.056 62.1749 353.168 62.1749C353.607 62.1749 354.032 62.2216 354.442 62.3149C354.862 62.3989 355.231 62.5529 355.548 62.7769C355.866 63.0009 356.118 63.3043 356.304 63.6869C356.5 64.0603 356.598 64.5363 356.598 65.1149C356.598 65.6749 356.51 66.1649 356.332 66.5849C356.155 66.9956 355.903 67.3363 355.576 67.6069C355.259 67.8683 354.876 68.0643 354.428 68.1949C353.98 68.3256 353.486 68.3909 352.944 68.3909C352.814 68.3909 352.66 68.3863 352.482 68.3769C352.314 68.3769 352.132 68.3676 351.936 68.3489C351.75 68.3396 351.558 68.3209 351.362 68.2929C351.166 68.2649 350.98 68.2276 350.802 68.1809V58.4789ZM353.042 67.3829C353.714 67.3829 354.27 67.2009 354.708 66.8369C355.147 66.4729 355.366 65.9269 355.366 65.1989C355.366 64.8069 355.301 64.4803 355.17 64.2189C355.04 63.9576 354.862 63.7523 354.638 63.6029C354.424 63.4443 354.172 63.3369 353.882 63.2809C353.602 63.2156 353.304 63.1829 352.986 63.1829C352.818 63.1829 352.632 63.1969 352.426 63.2249C352.221 63.2529 352.067 63.2809 351.964 63.3089V67.2989C352.216 67.3549 352.576 67.3829 353.042 67.3829ZM370.978 59.5149H366.456V68.2789H365.294V58.4789H372.14V68.2789H370.978V59.5149ZM374.117 63.3789C374.117 61.7456 374.462 60.4949 375.153 59.6269C375.844 58.7496 376.828 58.3109 378.107 58.3109C378.798 58.3109 379.395 58.4323 379.899 58.6749C380.403 58.9176 380.818 59.2629 381.145 59.7109C381.481 60.1496 381.728 60.6816 381.887 61.3069C382.046 61.9229 382.125 62.6136 382.125 63.3789C382.125 65.0123 381.775 66.2676 381.075 67.1449C380.384 68.0129 379.395 68.4469 378.107 68.4469C377.426 68.4469 376.833 68.3256 376.329 68.0829C375.834 67.8403 375.419 67.4996 375.083 67.0609C374.756 66.6129 374.514 66.0809 374.355 65.4649C374.196 64.8396 374.117 64.1443 374.117 63.3789ZM375.349 63.3789C375.349 63.9203 375.4 64.4336 375.503 64.9189C375.615 65.4043 375.783 65.8336 376.007 66.2069C376.231 66.5709 376.516 66.8649 376.861 67.0889C377.216 67.3036 377.631 67.4109 378.107 67.4109C378.975 67.4109 379.656 67.0843 380.151 66.4309C380.646 65.7683 380.893 64.7509 380.893 63.3789C380.893 62.8469 380.837 62.3383 380.725 61.8529C380.622 61.3583 380.454 60.9289 380.221 60.5649C379.997 60.1916 379.708 59.8976 379.353 59.6829C379.008 59.4589 378.592 59.3469 378.107 59.3469C377.248 59.3469 376.572 59.6783 376.077 60.3409C375.592 60.9943 375.349 62.0069 375.349 63.3789ZM384.093 58.4789H389.427V59.5149H385.255V62.7209H389.077V63.7569H385.255V67.2429H389.497V68.2789H384.093V58.4789ZM392.355 63.6449V62.6649H392.579C392.663 62.6649 392.766 62.6649 392.887 62.6649C393.009 62.6649 393.13 62.6603 393.251 62.6509C393.382 62.6416 393.503 62.6369 393.615 62.6369C393.737 62.6276 393.835 62.6136 393.909 62.5949C394.152 62.5576 394.381 62.4969 394.595 62.4129C394.81 62.3196 394.997 62.2029 395.155 62.0629C395.314 61.9229 395.44 61.7596 395.533 61.5729C395.627 61.3863 395.673 61.1809 395.673 60.9569C395.673 60.6489 395.622 60.3923 395.519 60.1869C395.417 59.9816 395.272 59.8183 395.085 59.6969C394.908 59.5663 394.698 59.4776 394.455 59.4309C394.222 59.3749 393.97 59.3469 393.699 59.3469C393.195 59.3469 392.766 59.3843 392.411 59.4589C392.057 59.5243 391.772 59.6083 391.557 59.7109L391.249 58.7869C391.436 58.6843 391.772 58.5816 392.257 58.4789C392.743 58.3669 393.289 58.3109 393.895 58.3109C394.269 58.3109 394.633 58.3529 394.987 58.4369C395.351 58.5116 395.673 58.6423 395.953 58.8289C396.243 59.0063 396.471 59.2536 396.639 59.5709C396.817 59.8789 396.905 60.2616 396.905 60.7189C396.905 61.1856 396.751 61.6336 396.443 62.0629C396.135 62.4829 395.673 62.7863 395.057 62.9729V63.0289C395.72 63.1223 396.243 63.3696 396.625 63.7709C397.008 64.1723 397.199 64.7089 397.199 65.3809C397.199 65.9129 397.092 66.3749 396.877 66.7669C396.672 67.1496 396.397 67.4669 396.051 67.7189C395.715 67.9709 395.323 68.1576 394.875 68.2789C394.437 68.3909 393.989 68.4469 393.531 68.4469C392.915 68.4469 392.407 68.4096 392.005 68.3349C391.613 68.2696 391.287 68.1856 391.025 68.0829L391.319 67.0329C391.534 67.1356 391.833 67.2243 392.215 67.2989C392.607 67.3736 393.079 67.4109 393.629 67.4109C393.919 67.4109 394.203 67.3736 394.483 67.2989C394.763 67.2149 395.011 67.0936 395.225 66.9349C395.449 66.7669 395.627 66.5616 395.757 66.3189C395.897 66.0763 395.967 65.7869 395.967 65.4509C395.967 64.8629 395.762 64.4336 395.351 64.1629C394.941 63.8829 394.404 63.7196 393.741 63.6729C393.629 63.6636 393.522 63.6589 393.419 63.6589C393.326 63.6496 393.228 63.6449 393.125 63.6449H392.355ZM406.957 70.0849H406.159L405.949 68.2789H399.075L398.865 70.0849H398.053V67.2429H399.047C399.122 67.1403 399.234 66.9023 399.383 66.5289C399.542 66.1463 399.696 65.6049 399.845 64.9049C400.004 64.1956 400.144 63.3136 400.265 62.2589C400.387 61.1949 400.447 59.9349 400.447 58.4789H405.683V67.2429H406.957V70.0849ZM404.521 67.2429V59.5149H401.539C401.511 60.5416 401.455 61.4656 401.371 62.2869C401.297 63.1083 401.203 63.8363 401.091 64.4709C400.979 65.0963 400.853 65.6376 400.713 66.0949C400.573 66.5523 400.429 66.9349 400.279 67.2429H404.521ZM410.359 63.7429H409.701V68.2789H408.539V58.4789H409.701V63.0429L410.331 62.8469L413.621 58.4789H414.965L411.689 62.6929L411.101 63.1549L411.815 63.7149L415.399 68.2789H413.929L410.359 63.7429ZM423.076 61.6429L423.16 60.5229H423.104L422.502 61.6709L417.77 68.2789H417.084V58.4789H418.246V65.1989L418.148 66.3049H418.204L418.82 65.1569L423.552 58.4789H424.238V68.2789H423.076V61.6429ZM426.109 67.6769C426.109 67.4529 426.184 67.2709 426.333 67.1309C426.482 66.9909 426.674 66.9209 426.907 66.9209C427.196 66.9209 427.43 67.0236 427.607 67.2289C427.794 67.4343 427.887 67.7329 427.887 68.1249C427.887 68.4609 427.84 68.7549 427.747 69.0069C427.654 69.2589 427.532 69.4736 427.383 69.6509C427.234 69.8376 427.07 69.9869 426.893 70.0989C426.716 70.2203 426.538 70.3089 426.361 70.3649L426.011 69.8189C426.347 69.6883 426.594 69.4829 426.753 69.2029C426.921 68.9323 427.005 68.6569 427.005 68.3769C426.921 68.4049 426.842 68.4189 426.767 68.4189C426.58 68.4189 426.422 68.3583 426.291 68.2369C426.17 68.1063 426.109 67.9196 426.109 67.6769ZM74.4427 86.6429L74.5267 85.5229H74.4707L73.8687 86.6709L69.1367 93.2789H68.4507V83.4789H69.6127V90.1989L69.5147 91.3049H69.5707L70.1867 90.1569L74.9187 83.4789H75.6047V93.2789H74.4427V86.6429ZM89.2445 86.6989L89.3845 85.2289H89.3145L88.7825 86.5729L86.2345 90.9969H85.8845L83.1825 86.5589L82.6785 85.2289H82.6085L82.8045 86.6849V93.2789H81.7125V83.4789H82.5805L85.6465 88.4909L86.1085 89.5829H86.1365L86.5705 88.4629L89.4965 83.4789H90.4065V93.2789H89.2445V86.6989ZM100.011 83.4789H101.173V93.2789H100.011V83.4789ZM92.7867 83.4789H93.9487V87.2869C93.9953 87.2776 94.0653 87.2683 94.1587 87.2589C94.252 87.2403 94.3547 87.2263 94.4667 87.2169C94.5787 87.2076 94.6907 87.1983 94.8027 87.1889C94.924 87.1796 95.0407 87.1749 95.1527 87.1749C95.5913 87.1749 96.016 87.2216 96.4267 87.3149C96.8467 87.3989 97.2153 87.5529 97.5327 87.7769C97.85 88.0009 98.102 88.3043 98.2887 88.6869C98.4847 89.0603 98.5827 89.5363 98.5827 90.1149C98.5827 90.6749 98.494 91.1649 98.3167 91.5849C98.1393 91.9956 97.8873 92.3363 97.5607 92.6069C97.2433 92.8683 96.8607 93.0643 96.4127 93.1949C95.9647 93.3256 95.47 93.3909 94.9287 93.3909C94.798 93.3909 94.644 93.3863 94.4667 93.3769C94.2987 93.3769 94.1167 93.3676 93.9207 93.3489C93.734 93.3396 93.5427 93.3209 93.3467 93.2929C93.1507 93.2649 92.964 93.2276 92.7867 93.1809V83.4789ZM95.0267 92.3829C95.6987 92.3829 96.254 92.2009 96.6927 91.8369C97.1313 91.4729 97.3507 90.9269 97.3507 90.1989C97.3507 89.8069 97.2853 89.4803 97.1547 89.2189C97.024 88.9576 96.8467 88.7523 96.6227 88.6029C96.408 88.4443 96.156 88.3369 95.8667 88.2809C95.5867 88.2156 95.288 88.1829 94.9707 88.1829C94.8027 88.1829 94.616 88.1969 94.4107 88.2249C94.2053 88.2529 94.0513 88.2809 93.9487 88.3089V92.2989C94.2007 92.3549 94.56 92.3829 95.0267 92.3829ZM112.963 84.5149H108.441V93.2789H107.279V83.4789H114.125V93.2789H112.963V84.5149ZM116.101 88.3789C116.101 86.7456 116.447 85.4949 117.137 84.6269C117.828 83.7496 118.813 83.3109 120.091 83.3109C120.782 83.3109 121.379 83.4323 121.883 83.6749C122.387 83.9176 122.803 84.2629 123.129 84.7109C123.465 85.1496 123.713 85.6816 123.871 86.3069C124.03 86.9229 124.109 87.6136 124.109 88.3789C124.109 90.0123 123.759 91.2676 123.059 92.1449C122.369 93.0129 121.379 93.4469 120.091 93.4469C119.41 93.4469 118.817 93.3256 118.313 93.0829C117.819 92.8403 117.403 92.4996 117.067 92.0609C116.741 91.6129 116.498 91.0809 116.339 90.4649C116.181 89.8396 116.101 89.1443 116.101 88.3789ZM117.333 88.3789C117.333 88.9203 117.385 89.4336 117.487 89.9189C117.599 90.4043 117.767 90.8336 117.991 91.2069C118.215 91.5709 118.5 91.8649 118.845 92.0889C119.2 92.3036 119.615 92.4109 120.091 92.4109C120.959 92.4109 121.641 92.0843 122.135 91.4309C122.63 90.7683 122.877 89.7509 122.877 88.3789C122.877 87.8469 122.821 87.3383 122.709 86.8529C122.607 86.3583 122.439 85.9289 122.205 85.5649C121.981 85.1916 121.692 84.8976 121.337 84.6829C120.992 84.4589 120.577 84.3469 120.091 84.3469C119.233 84.3469 118.556 84.6783 118.061 85.3409C117.576 85.9943 117.333 87.0069 117.333 88.3789ZM127.898 88.7429H127.24V93.2789H126.078V83.4789H127.24V88.0429L127.87 87.8469L131.16 83.4789H132.504L129.228 87.6929L128.64 88.1549L129.354 88.7149L132.938 93.2789H131.468L127.898 88.7429ZM139.285 90.5629H135.673L134.693 93.2789H133.545L137.255 83.3249H137.787L141.511 93.2789H140.293L139.285 90.5629ZM136.051 89.5549H138.935L137.843 86.5729L137.493 85.0889H137.479L137.129 86.6009L136.051 89.5549ZM146.634 83.4789H147.754V88.0429L148.356 87.8469L151.198 83.4789H152.486L149.658 87.7349L149.098 88.1829L149.798 88.7569L152.92 93.2789H151.492L148.398 88.7429H147.754V93.2789H146.634V88.5749L146.046 88.7709L142.952 93.2789H141.608L144.702 88.8969L145.374 88.3649L144.73 87.8749L141.804 83.4789H143.162L146.004 87.8749H146.634V83.4789ZM154.091 83.4789H159.425V84.5149H155.253V87.7209H159.075V88.7569H155.253V92.2429H159.495V93.2789H154.091V83.4789ZM169.129 86.6989L169.269 85.2289H169.199L168.667 86.5729L166.119 90.9969H165.769L163.067 86.5589L162.563 85.2289H162.493L162.689 86.6849V93.2789H161.597V83.4789H162.465L165.531 88.4909L165.993 89.5829H166.021L166.455 88.4629L169.381 83.4789H170.291V93.2789H169.129V86.6989ZM182.312 85.7189C182.312 85.9523 182.275 86.1903 182.2 86.4329C182.125 86.6756 182.013 86.9043 181.864 87.1189C181.715 87.3243 181.523 87.5063 181.29 87.6649C181.057 87.8236 180.781 87.9449 180.464 88.0289V88.0849C180.744 88.1316 181.01 88.2109 181.262 88.3229C181.523 88.4349 181.752 88.5889 181.948 88.7849C182.144 88.9809 182.303 89.2189 182.424 89.4989C182.545 89.7789 182.606 90.1103 182.606 90.4929C182.606 90.9969 182.499 91.4356 182.284 91.8089C182.079 92.1729 181.803 92.4716 181.458 92.7049C181.122 92.9383 180.735 93.1109 180.296 93.2229C179.857 93.3349 179.409 93.3909 178.952 93.3909C178.793 93.3909 178.607 93.3909 178.392 93.3909C178.177 93.3909 177.953 93.3816 177.72 93.3629C177.487 93.3536 177.253 93.3349 177.02 93.3069C176.787 93.2883 176.581 93.2556 176.404 93.2089V83.5629C176.749 83.5069 177.151 83.4603 177.608 83.4229C178.065 83.3856 178.565 83.3669 179.106 83.3669C179.47 83.3669 179.839 83.3996 180.212 83.4649C180.595 83.5209 180.94 83.6376 181.248 83.8149C181.556 83.9829 181.808 84.2209 182.004 84.5289C182.209 84.8369 182.312 85.2336 182.312 85.7189ZM179.064 92.3829C179.363 92.3829 179.652 92.3503 179.932 92.2849C180.212 92.2103 180.459 92.0983 180.674 91.9489C180.889 91.7903 181.057 91.5989 181.178 91.3749C181.309 91.1509 181.374 90.8849 181.374 90.5769C181.374 90.1943 181.295 89.8863 181.136 89.6529C180.987 89.4196 180.786 89.2376 180.534 89.1069C180.291 88.9763 180.016 88.8876 179.708 88.8409C179.4 88.7943 179.092 88.7709 178.784 88.7709H177.566V92.2849C177.631 92.3036 177.725 92.3176 177.846 92.3269C177.967 92.3363 178.098 92.3456 178.238 92.3549C178.378 92.3643 178.523 92.3736 178.672 92.3829C178.821 92.3829 178.952 92.3829 179.064 92.3829ZM178.294 87.7909C178.453 87.7909 178.644 87.7863 178.868 87.7769C179.092 87.7676 179.279 87.7536 179.428 87.7349C179.652 87.6603 179.862 87.5716 180.058 87.4689C180.254 87.3569 180.427 87.2309 180.576 87.0909C180.735 86.9416 180.856 86.7736 180.94 86.5869C181.033 86.3909 181.08 86.1809 181.08 85.9569C181.08 85.6489 181.019 85.3969 180.898 85.2009C180.786 84.9956 180.632 84.8323 180.436 84.7109C180.24 84.5896 180.016 84.5056 179.764 84.4589C179.512 84.4029 179.255 84.3749 178.994 84.3749C178.686 84.3749 178.401 84.3843 178.14 84.4029C177.888 84.4123 177.697 84.4309 177.566 84.4589V87.7909H178.294ZM189.242 90.5629H185.63L184.65 93.2789H183.502L187.212 83.3249H187.744L191.468 93.2789H190.25L189.242 90.5629ZM186.008 89.5549H188.892L187.8 86.5729L187.45 85.0889H187.436L187.086 86.6009L186.008 89.5549ZM200.301 86.6989L200.441 85.2289H200.371L199.839 86.5729L197.291 90.9969H196.941L194.239 86.5589L193.735 85.2289H193.665L193.861 86.6849V93.2789H192.769V83.4789H193.637L196.703 88.4909L197.165 89.5829H197.193L197.627 88.4629L200.553 83.4789H201.463V93.2789H200.301V86.6989ZM212.633 84.5149H209.707C209.614 86.3816 209.488 87.9356 209.329 89.1769C209.18 90.4089 208.951 91.3703 208.643 92.0609C208.438 92.5089 208.195 92.8356 207.915 93.0409C207.635 93.2463 207.332 93.3489 207.005 93.3489C206.837 93.3489 206.692 93.3349 206.571 93.3069C206.45 93.2883 206.333 93.2556 206.221 93.2089L206.375 92.2009C206.468 92.2289 206.566 92.2429 206.669 92.2429C206.828 92.2429 206.982 92.1916 207.131 92.0889C207.29 91.9863 207.444 91.7949 207.593 91.5149C207.724 91.2629 207.845 90.9269 207.957 90.5069C208.078 90.0869 208.181 89.5549 208.265 88.9109C208.358 88.2669 208.433 87.5016 208.489 86.6149C208.545 85.7189 208.587 84.6736 208.615 83.4789H213.795V93.2789H212.633V84.5149ZM218.933 88.6449L219.297 89.8909H219.367L219.647 88.6029L221.523 83.4789H222.713L220.235 89.8489C219.983 90.5116 219.759 91.0669 219.563 91.5149C219.377 91.9536 219.185 92.3129 218.989 92.5929C218.793 92.8636 218.583 93.0596 218.359 93.1809C218.135 93.2929 217.86 93.3489 217.533 93.3489C217.225 93.3489 216.978 93.3256 216.791 93.2789C216.614 93.2229 216.446 93.1436 216.287 93.0409L216.637 92.0749C216.824 92.1776 216.997 92.2429 217.155 92.2709C217.314 92.2989 217.459 92.3129 217.589 92.3129C217.851 92.3129 218.07 92.1823 218.247 91.9209C218.425 91.6503 218.579 91.2536 218.709 90.7309L215.083 83.4789H216.427L218.933 88.6449ZM224.936 83.4789V86.7269C224.936 88.0056 225.514 88.6449 226.672 88.6449C227.11 88.6449 227.521 88.5889 227.904 88.4769C228.286 88.3556 228.599 88.1969 228.842 88.0009V83.4789H230.004V93.2789H228.842V89.0509C228.59 89.1909 228.258 89.3309 227.848 89.4709C227.437 89.6109 226.966 89.6809 226.434 89.6809C226.042 89.6809 225.682 89.6389 225.356 89.5549C225.029 89.4616 224.749 89.3123 224.516 89.1069C224.282 88.8923 224.1 88.6076 223.97 88.2529C223.839 87.8983 223.774 87.4596 223.774 86.9369V83.4789H224.936ZM232.39 93.2789V83.4789H233.552V92.2429H236.758V83.4789H237.92V92.2429H241.126V83.4789H242.288V93.2789H232.39ZM250.66 86.6429L250.744 85.5229H250.688L250.086 86.6709L245.354 93.2789H244.668V83.4789H245.83V90.1989L245.732 91.3049H245.788L246.404 90.1569L251.136 83.4789H251.822V93.2789H250.66V86.6429ZM254.197 83.4789H259.531V84.5149H255.359V87.7209H259.181V88.7569H255.359V92.2429H259.601V93.2789H254.197V83.4789ZM271.119 84.5149H266.597V93.2789H265.435V83.4789H272.281V93.2789H271.119V84.5149ZM274.664 83.5769C275.018 83.4929 275.401 83.4369 275.812 83.4089C276.222 83.3809 276.628 83.3669 277.03 83.3669C277.459 83.3669 277.893 83.4089 278.332 83.4929C278.78 83.5769 279.186 83.7309 279.55 83.9549C279.914 84.1789 280.208 84.4869 280.432 84.8789C280.665 85.2709 280.782 85.7703 280.782 86.3769C280.782 86.9743 280.674 87.4783 280.46 87.8889C280.245 88.2996 279.96 88.6356 279.606 88.8969C279.251 89.1489 278.845 89.3309 278.388 89.4429C277.93 89.5549 277.459 89.6109 276.974 89.6109C276.927 89.6109 276.848 89.6109 276.736 89.6109C276.633 89.6109 276.521 89.6109 276.4 89.6109C276.288 89.6016 276.176 89.5923 276.064 89.5829C275.952 89.5736 275.872 89.5643 275.826 89.5549V93.2789H274.664V83.5769ZM277.058 84.3749C276.815 84.3749 276.582 84.3796 276.358 84.3889C276.134 84.3983 275.956 84.4216 275.826 84.4589V88.5189C275.872 88.5376 275.947 88.5516 276.05 88.5609C276.152 88.5609 276.26 88.5656 276.372 88.5749C276.484 88.5749 276.591 88.5749 276.694 88.5749C276.796 88.5749 276.871 88.5749 276.918 88.5749C277.235 88.5749 277.548 88.5469 277.856 88.4909C278.173 88.4256 278.458 88.3136 278.71 88.1549C278.962 87.9963 279.162 87.7723 279.312 87.4829C279.47 87.1936 279.55 86.8249 279.55 86.3769C279.55 85.9943 279.475 85.6769 279.326 85.4249C279.186 85.1636 278.994 84.9583 278.752 84.8089C278.518 84.6503 278.252 84.5383 277.954 84.4729C277.655 84.4076 277.356 84.3749 277.058 84.3749ZM282.484 83.4789H287.818V84.5149H283.646V87.7209H287.468V88.7569H283.646V92.2429H287.888V93.2789H282.484V83.4789ZM297.774 95.0849H296.976L296.766 93.2789H289.892L289.682 95.0849H288.87V92.2429H289.864C289.938 92.1403 290.05 91.9023 290.2 91.5289C290.358 91.1463 290.512 90.6049 290.662 89.9049C290.82 89.1956 290.96 88.3136 291.082 87.2589C291.203 86.1949 291.264 84.9349 291.264 83.4789H296.5V92.2429H297.774V95.0849ZM295.338 92.2429V84.5149H292.356C292.328 85.5416 292.272 86.4656 292.188 87.2869C292.113 88.1083 292.02 88.8363 291.908 89.4709C291.796 90.0963 291.67 90.6376 291.53 91.0949C291.39 91.5523 291.245 91.9349 291.096 92.2429H295.338ZM304.891 84.5149H301.965C301.872 86.3816 301.746 87.9356 301.587 89.1769C301.438 90.4089 301.209 91.3703 300.901 92.0609C300.696 92.5089 300.453 92.8356 300.173 93.0409C299.893 93.2463 299.59 93.3489 299.263 93.3489C299.095 93.3489 298.95 93.3349 298.829 93.3069C298.708 93.2883 298.591 93.2556 298.479 93.2089L298.633 92.2009C298.726 92.2289 298.824 92.2429 298.927 92.2429C299.086 92.2429 299.24 92.1916 299.389 92.0889C299.548 91.9863 299.702 91.7949 299.851 91.5149C299.982 91.2629 300.103 90.9269 300.215 90.5069C300.336 90.0869 300.439 89.5549 300.523 88.9109C300.616 88.2669 300.691 87.5016 300.747 86.6149C300.803 85.7189 300.845 84.6736 300.873 83.4789H306.053V93.2789H304.891V84.5149ZM308.027 88.3789C308.027 86.7456 308.372 85.4949 309.063 84.6269C309.754 83.7496 310.738 83.3109 312.017 83.3109C312.708 83.3109 313.305 83.4323 313.809 83.6749C314.313 83.9176 314.728 84.2629 315.055 84.7109C315.391 85.1496 315.638 85.6816 315.797 86.3069C315.956 86.9229 316.035 87.6136 316.035 88.3789C316.035 90.0123 315.685 91.2676 314.985 92.1449C314.294 93.0129 313.305 93.4469 312.017 93.4469C311.336 93.4469 310.743 93.3256 310.239 93.0829C309.744 92.8403 309.329 92.4996 308.993 92.0609C308.666 91.6129 308.424 91.0809 308.265 90.4649C308.106 89.8396 308.027 89.1443 308.027 88.3789ZM309.259 88.3789C309.259 88.9203 309.31 89.4336 309.413 89.9189C309.525 90.4043 309.693 90.8336 309.917 91.2069C310.141 91.5709 310.426 91.8649 310.771 92.0889C311.126 92.3036 311.541 92.4109 312.017 92.4109C312.885 92.4109 313.566 92.0843 314.061 91.4309C314.556 90.7683 314.803 89.7509 314.803 88.3789C314.803 87.8469 314.747 87.3383 314.635 86.8529C314.532 86.3583 314.364 85.9289 314.131 85.5649C313.907 85.1916 313.618 84.8976 313.263 84.6829C312.918 84.4589 312.502 84.3469 312.017 84.3469C311.158 84.3469 310.482 84.6783 309.987 85.3409C309.502 85.9943 309.259 87.0069 309.259 88.3789ZM321.552 83.4789H322.672V88.0429L323.274 87.8469L326.116 83.4789H327.404L324.576 87.7349L324.016 88.1829L324.716 88.7569L327.838 93.2789H326.41L323.316 88.7429H322.672V93.2789H321.552V88.5749L320.964 88.7709L317.87 93.2789H316.526L319.62 88.8969L320.292 88.3649L319.648 87.8749L316.722 83.4789H318.08L320.922 87.8749H321.552V83.4789ZM329.009 83.4789H334.343V84.5149H330.171V87.7209H333.993V88.7569H330.171V92.2429H334.413V93.2789H329.009V83.4789ZM342.381 88.7849H337.677V93.2789H336.515V83.4789H337.677V87.7489H342.381V83.4789H343.543V93.2789H342.381V88.7849ZM351.913 86.6429L351.997 85.5229H351.941L351.339 86.6709L346.607 93.2789H345.921V83.4789H347.083V90.1989L346.985 91.3049H347.041L347.657 90.1569L352.389 83.4789H353.075V93.2789H351.913V86.6429ZM361.037 93.2789H359.875V89.0089L358.433 89.3169L355.997 93.2789H354.625L356.809 89.7929L357.663 89.1909C357.327 89.1163 357.014 89.0043 356.725 88.8549C356.445 88.6963 356.197 88.5003 355.983 88.2669C355.777 88.0243 355.614 87.7443 355.493 87.4269C355.381 87.1096 355.325 86.7456 355.325 86.3349C355.325 85.7656 355.418 85.2943 355.605 84.9209C355.801 84.5383 356.062 84.2349 356.389 84.0109C356.725 83.7776 357.112 83.6143 357.551 83.5209C357.999 83.4183 358.47 83.3669 358.965 83.3669C359.282 83.3669 359.618 83.3809 359.973 83.4089C360.337 83.4369 360.691 83.4929 361.037 83.5769V93.2789ZM358.909 84.3749C358.601 84.3749 358.307 84.4076 358.027 84.4729C357.747 84.5289 357.495 84.6316 357.271 84.7809C357.056 84.9303 356.883 85.1309 356.753 85.3829C356.622 85.6349 356.557 85.9523 356.557 86.3349C356.557 86.6896 356.617 86.9929 356.739 87.2449C356.869 87.4969 357.042 87.7069 357.257 87.8749C357.471 88.0336 357.719 88.1503 357.999 88.2249C358.288 88.2996 358.596 88.3369 358.923 88.3369H359.875V84.4589C359.744 84.4309 359.609 84.4123 359.469 84.4029C359.329 84.3843 359.142 84.3749 358.909 84.3749ZM372.404 84.5149H368.316V93.2789H367.154V83.4789H372.404V84.5149ZM372.613 88.3789C372.613 86.7456 372.958 85.4949 373.649 84.6269C374.34 83.7496 375.324 83.3109 376.603 83.3109C377.294 83.3109 377.891 83.4323 378.395 83.6749C378.899 83.9176 379.314 84.2629 379.641 84.7109C379.977 85.1496 380.224 85.6816 380.383 86.3069C380.542 86.9229 380.621 87.6136 380.621 88.3789C380.621 90.0123 380.271 91.2676 379.571 92.1449C378.88 93.0129 377.891 93.4469 376.603 93.4469C375.922 93.4469 375.329 93.3256 374.825 93.0829C374.33 92.8403 373.915 92.4996 373.579 92.0609C373.252 91.6129 373.01 91.0809 372.851 90.4649C372.692 89.8396 372.613 89.1443 372.613 88.3789ZM373.845 88.3789C373.845 88.9203 373.896 89.4336 373.999 89.9189C374.111 90.4043 374.279 90.8336 374.503 91.2069C374.727 91.5709 375.012 91.8649 375.357 92.0889C375.712 92.3036 376.127 92.4109 376.603 92.4109C377.471 92.4109 378.152 92.0843 378.647 91.4309C379.142 90.7683 379.389 89.7509 379.389 88.3789C379.389 87.8469 379.333 87.3383 379.221 86.8529C379.118 86.3583 378.95 85.9289 378.717 85.5649C378.493 85.1916 378.204 84.8976 377.849 84.6829C377.504 84.4589 377.088 84.3469 376.603 84.3469C375.744 84.3469 375.068 84.6783 374.573 85.3409C374.088 85.9943 373.845 87.0069 373.845 88.3789ZM388.861 92.8729C388.581 93.0876 388.227 93.2369 387.797 93.3209C387.368 93.4049 386.911 93.4469 386.425 93.4469C385.837 93.4469 385.287 93.3489 384.773 93.1529C384.26 92.9476 383.812 92.6396 383.429 92.2289C383.047 91.8183 382.743 91.2956 382.519 90.6609C382.295 90.0169 382.183 89.2563 382.183 88.3789C382.183 87.4643 382.305 86.6896 382.547 86.0549C382.799 85.4109 383.126 84.8883 383.527 84.4869C383.938 84.0763 384.395 83.7776 384.899 83.5909C385.403 83.4043 385.917 83.3109 386.439 83.3109C386.999 83.3109 387.457 83.3436 387.811 83.4089C388.166 83.4649 388.469 83.5443 388.721 83.6469L388.441 84.6689C387.993 84.4543 387.354 84.3469 386.523 84.3469C386.141 84.3469 385.763 84.4169 385.389 84.5569C385.016 84.6969 384.68 84.9256 384.381 85.2429C384.092 85.5603 383.859 85.9756 383.681 86.4889C383.504 87.0023 383.415 87.6323 383.415 88.3789C383.415 89.0509 383.499 89.6389 383.667 90.1429C383.835 90.6469 384.064 91.0669 384.353 91.4029C384.652 91.7389 384.997 91.9909 385.389 92.1589C385.791 92.3269 386.225 92.4109 386.691 92.4109C387.111 92.4109 387.475 92.3689 387.783 92.2849C388.101 92.2009 388.367 92.0936 388.581 91.9629L388.861 92.8729ZM396.751 84.5149H393.699V93.2789H392.537V84.5149H389.485V83.4789H396.751V84.5149ZM404.181 86.6429L404.265 85.5229H404.209L403.607 86.6709L398.875 93.2789H398.189V83.4789H399.351V90.1989L399.253 91.3049H399.309L399.925 90.1569L404.657 83.4789H405.343V93.2789H404.181V86.6429ZM413.584 88.7849H408.88V93.2789H407.718V83.4789H408.88V87.7489H413.584V83.4789H414.746V93.2789H413.584V88.7849ZM423.117 86.6429L423.201 85.5229H423.145L422.543 86.6709L417.811 93.2789H417.125V83.4789H418.287V90.1989L418.189 91.3049H418.245L418.861 90.1569L423.593 83.4789H424.279V93.2789H423.117V86.6429ZM434.69 95.0849H433.892L433.682 93.2789H426.654V83.4789H427.816V92.2429H432.226V83.4789H433.388V92.2429H434.69V95.0849ZM445.906 85.7189C445.906 85.9523 445.868 86.1903 445.794 86.4329C445.719 86.6756 445.607 86.9043 445.458 87.1189C445.308 87.3243 445.117 87.5063 444.884 87.6649C444.65 87.8236 444.375 87.9449 444.058 88.0289V88.0849C444.338 88.1316 444.604 88.2109 444.856 88.3229C445.117 88.4349 445.346 88.5889 445.542 88.7849C445.738 88.9809 445.896 89.2189 446.018 89.4989C446.139 89.7789 446.2 90.1103 446.2 90.4929C446.2 90.9969 446.092 91.4356 445.878 91.8089C445.672 92.1729 445.397 92.4716 445.052 92.7049C444.716 92.9383 444.328 93.1109 443.89 93.2229C443.451 93.3349 443.003 93.3909 442.546 93.3909C442.387 93.3909 442.2 93.3909 441.986 93.3909C441.771 93.3909 441.547 93.3816 441.314 93.3629C441.08 93.3536 440.847 93.3349 440.614 93.3069C440.38 93.2883 440.175 93.2556 439.998 93.2089V83.5629C440.343 83.5069 440.744 83.4603 441.202 83.4229C441.659 83.3856 442.158 83.3669 442.7 83.3669C443.064 83.3669 443.432 83.3996 443.806 83.4649C444.188 83.5209 444.534 83.6376 444.842 83.8149C445.15 83.9829 445.402 84.2209 445.598 84.5289C445.803 84.8369 445.906 85.2336 445.906 85.7189ZM442.658 92.3829C442.956 92.3829 443.246 92.3503 443.526 92.2849C443.806 92.2103 444.053 92.0983 444.268 91.9489C444.482 91.7903 444.65 91.5989 444.772 91.3749C444.902 91.1509 444.968 90.8849 444.968 90.5769C444.968 90.1943 444.888 89.8863 444.73 89.6529C444.58 89.4196 444.38 89.2376 444.128 89.1069C443.885 88.9763 443.61 88.8876 443.302 88.8409C442.994 88.7943 442.686 88.7709 442.378 88.7709H441.16V92.2849C441.225 92.3036 441.318 92.3176 441.44 92.3269C441.561 92.3363 441.692 92.3456 441.832 92.3549C441.972 92.3643 442.116 92.3736 442.266 92.3829C442.415 92.3829 442.546 92.3829 442.658 92.3829ZM441.888 87.7909C442.046 87.7909 442.238 87.7863 442.462 87.7769C442.686 87.7676 442.872 87.7536 443.022 87.7349C443.246 87.6603 443.456 87.5716 443.652 87.4689C443.848 87.3569 444.02 87.2309 444.17 87.0909C444.328 86.9416 444.45 86.7736 444.534 86.5869C444.627 86.3909 444.674 86.1809 444.674 85.9569C444.674 85.6489 444.613 85.3969 444.492 85.2009C444.38 84.9956 444.226 84.8323 444.03 84.7109C443.834 84.5896 443.61 84.5056 443.358 84.4589C443.106 84.4029 442.849 84.3749 442.588 84.3749C442.28 84.3749 441.995 84.3843 441.734 84.4029C441.482 84.4123 441.29 84.4309 441.16 84.4589V87.7909H441.888ZM458.178 92.8729C457.898 93.0876 457.543 93.2369 457.114 93.3209C456.684 93.4049 456.227 93.4469 455.742 93.4469C455.154 93.4469 454.603 93.3489 454.09 93.1529C453.576 92.9476 453.128 92.6396 452.746 92.2289C452.363 91.8183 452.06 91.2956 451.836 90.6609C451.612 90.0169 451.5 89.2563 451.5 88.3789C451.5 87.4643 451.621 86.6896 451.864 86.0549C452.116 85.4109 452.442 84.8883 452.844 84.4869C453.254 84.0763 453.712 83.7776 454.216 83.5909C454.72 83.4043 455.233 83.3109 455.756 83.3109C456.316 83.3109 456.773 83.3436 457.128 83.4089C457.482 83.4649 457.786 83.5443 458.038 83.6469L457.758 84.6689C457.31 84.4543 456.67 84.3469 455.84 84.3469C455.457 84.3469 455.079 84.4169 454.706 84.5569C454.332 84.6969 453.996 84.9256 453.698 85.2429C453.408 85.5603 453.175 85.9756 452.998 86.4889C452.82 87.0023 452.732 87.6323 452.732 88.3789C452.732 89.0509 452.816 89.6389 452.984 90.1429C453.152 90.6469 453.38 91.0669 453.67 91.4029C453.968 91.7389 454.314 91.9909 454.706 92.1589C455.107 92.3269 455.541 92.4109 456.008 92.4109C456.428 92.4109 456.792 92.3689 457.1 92.2849C457.417 92.2009 457.683 92.0936 457.898 91.9629L458.178 92.8729ZM459.904 83.4789H465.238V84.5149H461.066V87.7209H464.888V88.7569H461.066V92.2429H465.308V93.2789H459.904V83.4789ZM475.194 95.0849H474.396L474.186 93.2789H467.312L467.102 95.0849H466.29V92.2429H467.284C467.358 92.1403 467.47 91.9023 467.62 91.5289C467.778 91.1463 467.932 90.6049 468.082 89.9049C468.24 89.1956 468.38 88.3136 468.502 87.2589C468.623 86.1949 468.684 84.9349 468.684 83.4789H473.92V92.2429H475.194V95.0849ZM472.758 92.2429V84.5149H469.776C469.748 85.5416 469.692 86.4656 469.608 87.2869C469.533 88.1083 469.44 88.8363 469.328 89.4709C469.216 90.0963 469.09 90.6376 468.95 91.0949C468.81 91.5523 468.665 91.9349 468.516 92.2429H472.758ZM476.041 88.3789C476.041 86.7456 476.386 85.4949 477.077 84.6269C477.768 83.7496 478.752 83.3109 480.031 83.3109C480.722 83.3109 481.319 83.4323 481.823 83.6749C482.327 83.9176 482.742 84.2629 483.069 84.7109C483.405 85.1496 483.652 85.6816 483.811 86.3069C483.97 86.9229 484.049 87.6136 484.049 88.3789C484.049 90.0123 483.699 91.2676 482.999 92.1449C482.308 93.0129 481.319 93.4469 480.031 93.4469C479.35 93.4469 478.757 93.3256 478.253 93.0829C477.758 92.8403 477.343 92.4996 477.007 92.0609C476.68 91.6129 476.438 91.0809 476.279 90.4649C476.12 89.8396 476.041 89.1443 476.041 88.3789ZM477.273 88.3789C477.273 88.9203 477.324 89.4336 477.427 89.9189C477.539 90.4043 477.707 90.8336 477.931 91.2069C478.155 91.5709 478.44 91.8649 478.785 92.0889C479.14 92.3036 479.555 92.4109 480.031 92.4109C480.899 92.4109 481.58 92.0843 482.075 91.4309C482.57 90.7683 482.817 89.7509 482.817 88.3789C482.817 87.8469 482.761 87.3383 482.649 86.8529C482.546 86.3583 482.378 85.9289 482.145 85.5649C481.921 85.1916 481.632 84.8976 481.277 84.6829C480.932 84.4589 480.516 84.3469 480.031 84.3469C479.172 84.3469 478.496 84.6783 478.001 85.3409C477.516 85.9943 477.273 87.0069 477.273 88.3789ZM491.883 88.7849H487.179V93.2789H486.017V83.4789H487.179V87.7489H491.883V83.4789H493.045V93.2789H491.883V88.7849ZM495.423 83.4789H500.757V84.5149H496.585V87.7209H500.407V88.7569H496.585V92.2429H500.827V93.2789H495.423V83.4789Z" fill="#333333"/>
<path d="M134.034 13.7V10.49H134.754C134.934 10.49 135.154 10.49 135.414 10.49C135.674 10.49 135.934 10.49 136.194 10.49C136.474 10.47 136.744 10.45 137.004 10.43C137.264 10.39 137.474 10.35 137.634 10.31C138.334 10.15 138.934 9.87 139.434 9.47C139.934 9.05 140.184 8.49 140.184 7.79C140.184 6.83 139.874 6.18 139.254 5.84C138.654 5.48 137.854 5.3 136.854 5.3C135.954 5.3 135.114 5.42 134.334 5.66C133.554 5.9 132.964 6.13 132.564 6.35L131.514 2.87C131.734 2.75 132.044 2.62 132.444 2.48C132.864 2.34 133.334 2.21 133.854 2.09C134.394 1.95 134.974 1.84 135.594 1.76C136.214 1.68 136.844 1.64 137.484 1.64C138.364 1.64 139.224 1.72 140.064 1.88C140.904 2.04 141.654 2.32 142.314 2.72C142.974 3.12 143.504 3.66 143.904 4.34C144.304 5 144.504 5.85 144.504 6.89C144.504 7.93 144.224 8.89 143.664 9.77C143.124 10.65 142.244 11.29 141.024 11.69V11.84C142.324 12.1 143.334 12.66 144.054 13.52C144.794 14.38 145.164 15.53 145.164 16.97C145.164 18.11 144.934 19.09 144.474 19.91C144.014 20.71 143.404 21.37 142.644 21.89C141.904 22.41 141.044 22.79 140.064 23.03C139.084 23.29 138.084 23.42 137.064 23.42C135.744 23.42 134.544 23.31 133.464 23.09C132.384 22.87 131.554 22.61 130.974 22.31L132.024 18.74C132.484 18.96 133.144 19.19 134.004 19.43C134.864 19.65 135.884 19.76 137.064 19.76C137.504 19.76 137.944 19.71 138.384 19.61C138.844 19.49 139.254 19.31 139.614 19.07C139.974 18.81 140.264 18.48 140.484 18.08C140.704 17.68 140.814 17.2 140.814 16.64C140.814 15.7 140.464 14.99 139.764 14.51C139.064 14.03 137.814 13.77 136.014 13.73C135.774 13.71 135.594 13.7 135.474 13.7C135.354 13.7 135.144 13.7 134.844 13.7H134.034ZM158.375 18.35H151.925L150.335 23H146.225L153.785 1.85H156.815L164.375 23H160.055L158.375 18.35ZM152.975 15.05H157.475L155.915 10.37L155.285 7.07H155.135L154.505 10.4L152.975 15.05ZM178.429 11.36L178.669 8.63H178.519L177.109 11.45L169.279 23H166.189V2H170.299V13.43L169.999 16.25H170.179L171.649 13.34L179.479 2H182.539V23H178.429V11.36ZM197.959 14.21H190.279V23H186.169V2H190.279V10.55H197.959V2H202.069V23H197.959V14.21ZM220.62 5.66H214.5V23H210.39V5.66H204.24V2H220.62V5.66ZM222.761 2H235.211V5.66H226.871V10.55H234.461V14.21H226.871V19.34H235.361V23H222.761V2ZM238.435 2.21C239.275 2.05 240.195 1.93 241.195 1.85C242.215 1.75 243.225 1.7 244.225 1.7C245.265 1.7 246.305 1.79 247.345 1.97C248.405 2.13 249.355 2.47 250.195 2.99C251.035 3.49 251.715 4.2 252.235 5.12C252.775 6.02 253.045 7.2 253.045 8.66C253.045 9.98 252.815 11.1 252.355 12.02C251.895 12.92 251.285 13.66 250.525 14.24C249.765 14.82 248.895 15.24 247.915 15.5C246.955 15.76 245.955 15.89 244.915 15.89C244.815 15.89 244.655 15.89 244.435 15.89C244.215 15.89 243.985 15.89 243.745 15.89C243.505 15.87 243.265 15.85 243.025 15.83C242.805 15.81 242.645 15.79 242.545 15.77V23H238.435V2.21ZM244.555 5.24C244.155 5.24 243.775 5.26 243.415 5.3C243.055 5.32 242.765 5.35 242.545 5.39V12.2C242.625 12.22 242.745 12.24 242.905 12.26C243.065 12.28 243.235 12.3 243.415 12.32C243.595 12.32 243.765 12.32 243.925 12.32C244.105 12.32 244.235 12.32 244.315 12.32C244.855 12.32 245.385 12.27 245.905 12.17C246.445 12.07 246.925 11.89 247.345 11.63C247.765 11.35 248.095 10.97 248.335 10.49C248.595 10.01 248.725 9.38 248.725 8.6C248.725 7.94 248.605 7.4 248.365 6.98C248.125 6.54 247.805 6.19 247.405 5.93C247.025 5.67 246.585 5.49 246.085 5.39C245.585 5.29 245.075 5.24 244.555 5.24ZM255.603 2H268.053V5.66H259.713V10.55H267.303V14.21H259.713V19.34H268.203V23H255.603V2ZM285.497 22.13C284.857 22.59 284.037 22.92 283.037 23.12C282.057 23.32 281.047 23.42 280.007 23.42C278.747 23.42 277.547 23.23 276.407 22.85C275.287 22.45 274.297 21.82 273.437 20.96C272.577 20.08 271.887 18.95 271.367 17.57C270.867 16.17 270.617 14.48 270.617 12.5C270.617 10.44 270.897 8.72 271.457 7.34C272.037 5.94 272.777 4.82 273.677 3.98C274.597 3.12 275.617 2.51 276.737 2.15C277.857 1.77 278.977 1.58 280.097 1.58C281.297 1.58 282.307 1.66 283.127 1.82C283.967 1.98 284.657 2.17 285.197 2.39L284.387 5.87C283.927 5.65 283.377 5.49 282.737 5.39C282.117 5.29 281.357 5.24 280.457 5.24C278.797 5.24 277.457 5.83 276.437 7.01C275.437 8.19 274.937 10.02 274.937 12.5C274.937 13.58 275.057 14.57 275.297 15.47C275.537 16.35 275.897 17.11 276.377 17.75C276.877 18.37 277.487 18.86 278.207 19.22C278.947 19.56 279.797 19.73 280.757 19.73C281.657 19.73 282.417 19.64 283.037 19.46C283.657 19.28 284.197 19.05 284.657 18.77L285.497 22.13ZM286.378 12.5C286.378 9 287.148 6.31 288.688 4.43C290.228 2.53 292.428 1.58 295.288 1.58C296.788 1.58 298.098 1.84 299.218 2.36C300.338 2.88 301.268 3.62 302.008 4.58C302.748 5.54 303.298 6.69 303.658 8.03C304.018 9.37 304.198 10.86 304.198 12.5C304.198 16 303.418 18.7 301.858 20.6C300.318 22.48 298.128 23.42 295.288 23.42C293.768 23.42 292.448 23.16 291.328 22.64C290.208 22.12 289.278 21.38 288.538 20.42C287.818 19.46 287.278 18.31 286.918 16.97C286.558 15.63 286.378 14.14 286.378 12.5ZM290.698 12.5C290.698 13.56 290.788 14.54 290.968 15.44C291.148 16.32 291.418 17.08 291.778 17.72C292.158 18.36 292.638 18.86 293.218 19.22C293.798 19.58 294.488 19.76 295.288 19.76C296.748 19.76 297.878 19.19 298.678 18.05C299.478 16.91 299.878 15.06 299.878 12.5C299.878 11.48 299.788 10.53 299.608 9.65C299.448 8.77 299.188 8 298.828 7.34C298.468 6.68 297.998 6.17 297.418 5.81C296.838 5.43 296.128 5.24 295.288 5.24C293.828 5.24 292.698 5.83 291.898 7.01C291.098 8.17 290.698 10 290.698 12.5ZM321.266 6.89C321.266 7.41 321.196 7.93 321.056 8.45C320.936 8.97 320.726 9.45 320.426 9.89C320.126 10.31 319.736 10.69 319.256 11.03C318.776 11.35 318.196 11.59 317.516 11.75V11.93C318.116 12.03 318.686 12.2 319.226 12.44C319.766 12.68 320.236 13.01 320.636 13.43C321.036 13.85 321.346 14.36 321.566 14.96C321.806 15.56 321.926 16.27 321.926 17.09C321.926 18.17 321.696 19.11 321.236 19.91C320.776 20.69 320.156 21.33 319.376 21.83C318.616 22.33 317.746 22.7 316.766 22.94C315.786 23.18 314.776 23.3 313.736 23.3C313.396 23.3 312.956 23.3 312.416 23.3C311.896 23.3 311.326 23.28 310.706 23.24C310.106 23.22 309.486 23.18 308.846 23.12C308.226 23.06 307.656 22.97 307.136 22.85V2.15C307.516 2.09 307.946 2.03 308.426 1.97C308.926 1.91 309.456 1.86 310.016 1.82C310.576 1.78 311.146 1.75 311.726 1.73C312.326 1.71 312.916 1.7 313.496 1.7C314.476 1.7 315.426 1.78 316.346 1.94C317.286 2.08 318.116 2.34 318.836 2.72C319.576 3.1 320.166 3.63 320.606 4.31C321.046 4.99 321.266 5.85 321.266 6.89ZM313.766 19.91C314.266 19.91 314.746 19.85 315.206 19.73C315.686 19.61 316.106 19.43 316.466 19.19C316.826 18.93 317.116 18.61 317.336 18.23C317.556 17.85 317.666 17.4 317.666 16.88C317.666 16.22 317.536 15.7 317.276 15.32C317.016 14.94 316.676 14.65 316.256 14.45C315.836 14.23 315.366 14.09 314.846 14.03C314.326 13.97 313.806 13.94 313.286 13.94H311.096V19.73C311.196 19.77 311.356 19.8 311.576 19.82C311.796 19.84 312.026 19.86 312.266 19.88C312.526 19.88 312.786 19.89 313.046 19.91C313.326 19.91 313.566 19.91 313.766 19.91ZM312.416 10.82C312.696 10.82 313.016 10.81 313.376 10.79C313.756 10.77 314.066 10.74 314.306 10.7C315.066 10.46 315.716 10.1 316.256 9.62C316.816 9.14 317.096 8.51 317.096 7.73C317.096 7.21 316.996 6.78 316.796 6.44C316.596 6.1 316.326 5.83 315.986 5.63C315.666 5.43 315.296 5.29 314.876 5.21C314.456 5.13 314.016 5.09 313.556 5.09C313.036 5.09 312.556 5.1 312.116 5.12C311.676 5.14 311.336 5.17 311.096 5.21V10.82H312.416ZM335.211 18.35H328.761L327.171 23H323.061L330.621 1.85H333.651L341.211 23H336.891L335.211 18.35ZM329.811 15.05H334.311L332.751 10.37L332.121 7.07H331.971L331.341 10.4L329.811 15.05ZM353.214 5.66H348.744C348.664 7.56 348.574 9.29 348.474 10.85C348.374 12.41 348.234 13.82 348.054 15.08C347.894 16.32 347.674 17.42 347.394 18.38C347.114 19.34 346.754 20.17 346.314 20.87C346.034 21.33 345.714 21.71 345.354 22.01C345.014 22.31 344.654 22.55 344.274 22.73C343.894 22.91 343.514 23.03 343.134 23.09C342.774 23.17 342.434 23.21 342.114 23.21C341.654 23.21 341.264 23.17 340.944 23.09C340.644 23.03 340.344 22.93 340.044 22.79L340.494 19.25C340.614 19.29 340.734 19.32 340.854 19.34C340.974 19.36 341.094 19.37 341.214 19.37C341.534 19.37 341.844 19.29 342.144 19.13C342.464 18.97 342.734 18.7 342.954 18.32C343.254 17.88 343.514 17.24 343.734 16.4C343.954 15.54 344.144 14.45 344.304 13.13C344.484 11.81 344.624 10.24 344.724 8.42C344.824 6.58 344.894 4.44 344.934 2H357.324V23H353.214V5.66ZM373.165 11.36L373.405 8.63H373.255L371.845 11.45L364.015 23H360.925V2H365.035V13.43L364.735 16.25H364.915L366.385 13.34L374.215 2H377.275V23H373.165V11.36ZM395.125 22.13C394.485 22.59 393.665 22.92 392.665 23.12C391.685 23.32 390.675 23.42 389.635 23.42C388.375 23.42 387.175 23.23 386.035 22.85C384.915 22.45 383.925 21.82 383.065 20.96C382.205 20.08 381.515 18.95 380.995 17.57C380.495 16.17 380.245 14.48 380.245 12.5C380.245 10.44 380.525 8.72 381.085 7.34C381.665 5.94 382.405 4.82 383.305 3.98C384.225 3.12 385.245 2.51 386.365 2.15C387.485 1.77 388.605 1.58 389.725 1.58C390.925 1.58 391.935 1.66 392.755 1.82C393.595 1.98 394.285 2.17 394.825 2.39L394.015 5.87C393.555 5.65 393.005 5.49 392.365 5.39C391.745 5.29 390.985 5.24 390.085 5.24C388.425 5.24 387.085 5.83 386.065 7.01C385.065 8.19 384.565 10.02 384.565 12.5C384.565 13.58 384.685 14.57 384.925 15.47C385.165 16.35 385.525 17.11 386.005 17.75C386.505 18.37 387.115 18.86 387.835 19.22C388.575 19.56 389.425 19.73 390.385 19.73C391.285 19.73 392.045 19.64 392.665 19.46C393.285 19.28 393.825 19.05 394.285 18.77L395.125 22.13ZM397.663 2H401.773V9.53C401.873 9.51 402.033 9.49 402.253 9.47C402.493 9.43 402.743 9.4 403.003 9.38C403.283 9.36 403.563 9.34 403.843 9.32C404.123 9.3 404.383 9.29 404.623 9.29C405.603 9.29 406.553 9.39 407.473 9.59C408.393 9.79 409.203 10.15 409.903 10.67C410.623 11.17 411.193 11.86 411.613 12.74C412.033 13.6 412.243 14.7 412.243 16.04C412.243 18.44 411.493 20.25 409.993 21.47C408.513 22.69 406.383 23.3 403.603 23.3C403.323 23.3 402.943 23.29 402.463 23.27C402.003 23.27 401.493 23.25 400.933 23.21C400.373 23.17 399.803 23.12 399.223 23.06C398.663 23 398.143 22.91 397.663 22.79V2ZM403.813 19.64C404.373 19.64 404.903 19.59 405.403 19.49C405.903 19.37 406.343 19.18 406.723 18.92C407.103 18.64 407.393 18.28 407.593 17.84C407.813 17.4 407.923 16.86 407.923 16.22C407.923 15.54 407.803 14.99 407.563 14.57C407.343 14.13 407.043 13.79 406.663 13.55C406.303 13.31 405.873 13.15 405.373 13.07C404.873 12.99 404.353 12.95 403.813 12.95C403.673 12.95 403.503 12.96 403.303 12.98C403.103 13 402.903 13.02 402.703 13.04C402.503 13.06 402.313 13.09 402.133 13.13C401.973 13.15 401.853 13.17 401.773 13.19V19.46C401.993 19.52 402.283 19.57 402.643 19.61C403.023 19.63 403.413 19.64 403.813 19.64ZM417.023 16.76C416.923 15.72 416.973 14.84 417.173 14.12C417.373 13.38 417.643 12.75 417.983 12.23C418.343 11.69 418.743 11.23 419.183 10.85C419.643 10.45 420.063 10.07 420.443 9.71C420.843 9.35 421.173 8.98 421.433 8.6C421.693 8.2 421.823 7.73 421.823 7.19C421.823 6.49 421.623 5.93 421.223 5.51C420.843 5.09 420.153 4.88 419.153 4.88C418.833 4.88 418.493 4.92 418.133 5C417.773 5.06 417.413 5.16 417.053 5.3C416.693 5.42 416.343 5.57 416.003 5.75C415.683 5.91 415.393 6.08 415.133 6.26L413.633 3.38C414.393 2.86 415.263 2.43 416.243 2.09C417.243 1.75 418.443 1.58 419.843 1.58C421.723 1.58 423.193 2.04 424.253 2.96C425.313 3.86 425.843 5.08 425.843 6.62C425.843 7.64 425.703 8.49 425.423 9.17C425.163 9.83 424.833 10.4 424.433 10.88C424.033 11.34 423.593 11.75 423.113 12.11C422.633 12.47 422.193 12.86 421.793 13.28C421.393 13.68 421.053 14.15 420.773 14.69C420.493 15.23 420.353 15.92 420.353 16.76H417.023ZM416.423 21.02C416.423 20.32 416.643 19.77 417.083 19.37C417.523 18.95 418.103 18.74 418.823 18.74C419.583 18.74 420.183 18.95 420.623 19.37C421.063 19.77 421.283 20.32 421.283 21.02C421.283 21.72 421.063 22.28 420.623 22.7C420.183 23.12 419.583 23.33 418.823 23.33C418.103 23.33 417.523 23.12 417.083 22.7C416.643 22.28 416.423 21.72 416.423 21.02Z" fill="black"/>
</svg>
